# xmcd
#
# Track frame offsets:
#	150
#	9525
#	18645
#	27210
#	36570
#	48398
#	57841
#	70516
#	82044
#	93189
#	106742
#	119252
#	132152
#	140447
#
# Disc length: 2039 seconds
# Revision: 0
# Processed by: cddbd v1.5.2PL0 Copyright (c) Steve Scherf et al.
# Submitted via: dBpowerAMP V12.0
#
DISCID=b407f50e
DTITLE=Johnny Cash - Old Golden Throat
DYEAR=1968
DGENRE=Country
TTITLE0=I Got Stripes
TTITLE1=A Certain Kinda Hurtin'
TTITLE2=A Little At A Time
TTITLE3=All Over Again
TTITLE4=Still In Town
TTITLE5=Smiling Bill McCall
TTITLE6=The Wind Changes
TTITLE7=The Songs Of Katie Elder
TTITLE8=Dark As A Dungeon
TTITLE9=Tennessee Flat Top Box
TTITLE10=The Matador
TTITLE11=Send A Picture Of Mother
TTITLE12=You Dreamer
TTITLE13=Red Velvet
EXTD=
EXTT0=
EXTT1=
EXTT2=
EXTT3=
EXTT4=
EXTT5=
EXTT6=
EXTT7=
EXTT8=
EXTT9=
EXTT10=
EXTT11=
EXTT12=
EXTT13=
PLAYORDER=
